<svg width="36" height="36" viewBox="0 0 36 36" fill="none" xmlns="http://www.w3.org/2000/svg">
<path d="M31.2188 27.8438H7.03125V5.90625C7.03125 5.75156 6.90469 5.625 6.75 5.625H4.78125C4.62656 5.625 4.5 5.75156 4.5 5.90625V30.0938C4.5 30.2484 4.62656 30.375 4.78125 30.375H31.2188C31.3734 30.375 31.5 30.2484 31.5 30.0938V28.125C31.5 27.9703 31.3734 27.8438 31.2188 27.8438ZM10.125 25.0312H12.0938C12.2484 25.0312 12.375 24.9047 12.375 24.75V19.6875C12.375 19.5328 12.2484 19.4062 12.0938 19.4062H10.125C9.97031 19.4062 9.84375 19.5328 9.84375 19.6875V24.75C9.84375 24.9047 9.97031 25.0312 10.125 25.0312ZM15.4688 25.0312H17.4375C17.5922 25.0312 17.7188 24.9047 17.7188 24.75V13.5C17.7188 13.3453 17.5922 13.2188 17.4375 13.2188H15.4688C15.3141 13.2188 15.1875 13.3453 15.1875 13.5V24.75C15.1875 24.9047 15.3141 25.0312 15.4688 25.0312ZM20.8125 25.0312H22.7812C22.9359 25.0312 23.0625 24.9047 23.0625 24.75V16.2422C23.0625 16.0875 22.9359 15.9609 22.7812 15.9609H20.8125C20.6578 15.9609 20.5312 16.0875 20.5312 16.2422V24.75C20.5312 24.9047 20.6578 25.0312 20.8125 25.0312ZM26.1562 25.0312H28.125C28.2797 25.0312 28.4062 24.9047 28.4062 24.75V10.6875C28.4062 10.5328 28.2797 10.4062 28.125 10.4062H26.1562C26.0016 10.4062 25.875 10.5328 25.875 10.6875V24.75C25.875 24.9047 26.0016 25.0312 26.1562 25.0312Z" fill="#FFFFFF"/>
</svg>
