<svg width="36" height="36" viewBox="0 0 36 36" fill="none" xmlns="http://www.w3.org/2000/svg">
<g clip-path="url(#clip0_1180_6123)">
<path d="M29.25 11.25H27V6.75H24.75V11.25H22.5V24.75H24.75V29.25H27V24.75H29.25V11.25ZM27 22.5H24.75V13.5H27V22.5Z" fill="white"/>
<path d="M15.75 9H13.5V4.5H11.25V9H9V20.25H11.25V24.75H13.5V20.25H15.75V9ZM13.5 18H11.25V11.25H13.5V18Z" fill="white"/>
<path d="M33.75 33.75H4.5C3.90326 33.75 3.33097 33.5129 2.90901 33.091C2.48705 32.669 2.25 32.0967 2.25 31.5V2.25H4.5V31.5H33.75V33.75Z" fill="white"/>
</g>
<defs>
<clipPath id="clip0_1180_6123">
<rect width="36" height="36" fill="white"/>
</clipPath>
</defs>
</svg>
