<svg width="36" height="36" viewBox="0 0 36 36" fill="none" xmlns="http://www.w3.org/2000/svg">
<path d="M31.2188 27.8438H7.03125V5.90625C7.03125 5.75156 6.90469 5.625 6.75 5.625H4.78125C4.62656 5.625 4.5 5.75156 4.5 5.90625V30.0938C4.5 30.2484 4.62656 30.375 4.78125 30.375H31.2188C31.3734 30.375 31.5 30.2484 31.5 30.0938V28.125C31.5 27.9703 31.3734 27.8438 31.2188 27.8438ZM10.7508 22.4191C10.8598 22.5281 11.0355 22.5281 11.148 22.4191L16.0102 17.5816L20.4961 22.0957C20.6051 22.2047 20.7844 22.2047 20.8934 22.0957L30.5754 12.4172C30.6844 12.3082 30.6844 12.1289 30.5754 12.0199L29.1832 10.6277C29.1303 10.5754 29.059 10.546 28.9846 10.546C28.9102 10.546 28.8388 10.5754 28.7859 10.6277L20.7 18.7102L16.2211 14.2031C16.1682 14.1508 16.0969 14.1214 16.0225 14.1214C15.9481 14.1214 15.8767 14.1508 15.8238 14.2031L9.36211 20.6262C9.30977 20.679 9.28041 20.7504 9.28041 20.8248C9.28041 20.8992 9.30977 20.9706 9.36211 21.0234L10.7508 22.4191Z" fill="#FFFFFF"/>
</svg>
