<svg width="36" height="36" viewBox="0 0 36 36" fill="none" xmlns="http://www.w3.org/2000/svg">
<path d="M32.5827 13.9606L18.6608 3.8356C18.4691 3.69512 18.2376 3.61938 17.9999 3.61938C17.7622 3.61938 17.5307 3.69512 17.3389 3.8356L3.41705 13.9606C3.22479 14.1004 3.08177 14.2975 3.0085 14.5236C2.93523 14.7497 2.93549 14.9932 3.00924 15.2192L8.32838 31.602C8.4018 31.8277 8.54471 32.0244 8.73667 32.1639C8.92863 32.3035 9.1598 32.3787 9.39713 32.379H26.6061C27.0948 32.379 27.5237 32.0661 27.6749 31.602L32.994 15.2192C33.1417 14.7551 32.9764 14.2489 32.5827 13.9606ZM29.4819 14.6602L26.019 15.7852L18.9878 10.6981V7.02778L29.4819 14.6602ZM16.3827 19.9407L13.2503 24.2403L11.3096 18.2918L16.3827 19.9407ZM12.294 16.5375L17.0155 13.1239V18.0739L12.294 16.5375ZM17.9999 21.0657L21.301 25.5973H14.6987L17.9999 21.0657ZM18.9878 13.1239L23.7057 16.5375L18.9878 18.0704V13.1239ZM19.617 19.9407L24.6901 18.2918L22.7495 24.2403L19.617 19.9407ZM17.0155 7.02778V10.6981L9.98072 15.7852L6.51783 14.6602L17.0155 7.02778ZM5.95181 16.5516L8.99283 17.5395L11.8194 26.202L9.92799 28.8L5.95181 16.5516ZM11.4995 29.9883L13.2678 27.5625H22.7354L24.5038 29.9883H11.4995ZM26.0717 28.8L24.1803 26.202L27.0069 17.5395L30.0479 16.5516L26.0717 28.8Z" fill="#FFFFFF"/>
</svg>
