<svg xmlns="http://www.w3.org/2000/svg" viewBox="0 0 512 512">
  <path fill="#f95428" d="M471.489 274.796l28.797 49.878-28.797 49.877h-57.594l-28.797-49.877 28.797-49.878z"/>
  <path fill="#fc846d" d="M459.457 274.803l-46.422 98.271-27.937-48.4 28.799-49.871z"/>
  <path fill="#ea8249" d="M318.397 334.421H214.135c-37.761 0-68.373 30.611-68.373 68.373v100.362H386.77V402.795c.001-37.761-30.612-68.374-68.373-68.374z"/>
  <path fill="#d36f3d" d="M256.263 334.421h-42.128c-37.761 0-68.373 30.611-68.373 68.373v100.362h42.128V402.795c-.001-37.762 30.612-68.374 68.373-68.374z"/>
  <g fill="#4a6f93">
    <path d="M386.771 398.809v53.508c-23.404-7.639-40.297-29.64-40.297-55.576 0-17.302 7.518-32.857 19.48-43.558l.188-.21c12.658 11.222 20.629 27.595 20.629 45.836zM166.58 353.184c11.962 10.702 19.48 26.257 19.48 43.558 0 25.936-16.893 47.936-40.297 55.576V398.81c0-18.241 7.971-34.614 20.629-45.836l.188.21zM315.605 312.58V374c0 26.567-21.541 48.109-48.109 48.109-26.576 0-48.109-21.541-48.109-48.109v-61.42h96.218z"/>
  </g>
  <path fill="#f7cba4" d="M228.948 351.037l-45.381-32.972a83.676 83.676 0 01-34.104-75.742l7.871-81.454c5.422-56.101 52.565-98.908 108.927-98.908 56.362 0 103.505 42.808 108.927 98.908l7.871 81.454a83.674 83.674 0 01-34.104 75.742l-45.381 32.972c-22.25 16.165-52.377 16.165-74.626 0z"/>
  <path fill="#e0b394" d="M177.704 258.376a50.51 50.51 0 0011.752 35.488l47.431 58.284a37.74 37.74 0 008.325 7.407 63.053 63.053 0 01-16.262-8.524l-45.382-32.967a83.669 83.669 0 01-34.095-75.741l7.86-81.456c5.373-55.553 51.651-98.072 107.293-98.88-34.272.829-73.079 33.133-75.103 67.537l-11.819 128.852z"/>
  <path fill="#ea8249" d="M384.874 131.557h-9.714c0-30.071-12.183-57.289-31.895-77.001C328.65 39.941 309.9 29.46 288.928 25.027h-.003V7.737h-45.327v17.292c-49.261 10.426-86.229 54.16-86.229 106.529h-9.721L141 164.724h77.723l6.832 27.639h81.411l6.832-27.639h77.723l-6.647-33.167z"/>
  <path fill="#d36f3d" d="M276.761 7.734v17.291c-49.252 10.425-86.221 54.16-86.221 106.53h-9.729l-6.644 33.166H141l6.655-33.166h9.718c0-52.369 36.969-96.105 86.232-106.53V7.734h33.156z"/>
  <g fill="#e6e6e6">
    <path d="M150.189 503.156H10.607l5.528-40.943h134.054M64.859 310.029h31.078l20.885 152.184H43.975z"/>
  </g>
  <g fill="#e0b394">
    <path d="M149.731 239.555c-13.709-.608-24.62-11.918-24.62-25.77 0-14.239 11.542-25.792 25.792-25.792 1.282 0 2.543.088 3.781.276M382.801 239.555c13.709-.608 24.631-11.918 24.631-25.77 0-14.239-11.553-25.792-25.803-25.792-1.282 0-2.554.099-3.781.276"/>
  </g>
  <g fill="#f95428">
    <path d="M111.084 420.354l5.738 41.856H43.978l5.749-41.856h61.346zM95.938 310.032l7.739 56.361H57.123l7.739-56.361z"/>
  </g>
  <path d="M266.824 313.133c13.693 0 27.385-5.211 37.811-15.637a8.29 8.29 0 000-11.725 8.29 8.29 0 00-11.726 0c-14.383 14.382-37.785 14.382-52.168 0-3.239-3.239-8.488-3.238-11.726 0s-3.238 8.488 0 11.725c10.424 10.425 24.116 15.637 37.809 15.637zM217.609 243.271a8.291 8.291 0 008.292-8.292v-13.262a8.291 8.291 0 00-8.292-8.292 8.291 8.291 0 00-8.292 8.292v13.262a8.292 8.292 0 008.292 8.292zM316.039 243.271a8.291 8.291 0 008.292-8.292v-13.262c0-4.579-3.711-8.292-8.292-8.292s-8.292 3.712-8.292 8.292v13.262a8.293 8.293 0 008.292 8.292zM266.824 269.808c11.583 0 21.005-9.423 21.005-21.005V216.19c0-4.579-3.711-8.292-8.292-8.292s-8.292 3.712-8.292 8.292v32.613c0 2.439-1.983 4.422-4.422 4.422s-4.422-1.983-4.422-4.422V216.19c0-4.579-3.711-8.292-8.292-8.292s-8.292 3.712-8.292 8.292v32.613c.002 11.583 9.424 21.005 21.007 21.005z"/>
  <path d="M141.445 246.937c-1.31 30.6 12.886 60.286 37.812 78.387l45.382 32.978c12.615 9.167 27.395 13.75 42.182 13.748 14.782-.001 29.572-4.584 42.191-13.748l45.381-32.978c24.919-18.104 39.111-47.79 37.801-78.387a34.016 34.016 0 0024.084-32.6c0-17.532-13.313-32.01-30.363-33.876l-.667-6.891h6.833a8.288 8.288 0 006.413-3.037 8.289 8.289 0 001.717-6.885l-6.649-33.166a8.29 8.29 0 00-8.13-6.662h-1.714c-1.957-28.179-13.865-54.404-34.032-74.572-14.497-14.497-32.336-24.83-51.912-30.17V8.292A8.291 8.291 0 00289.482 0h-45.327a8.291 8.291 0 00-8.292 8.292v10.801c-23.272 6.378-44.285 19.958-59.707 38.769-15.348 18.719-24.483 41.878-26.201 65.96h-1.75a8.291 8.291 0 00-8.13 6.662l-6.649 33.166a8.289 8.289 0 001.717 6.885 8.288 8.288 0 006.413 3.037h6.829l-.666 6.892c-17.044 1.865-30.352 16.343-30.352 33.876a34.024 34.024 0 0024.078 32.597zm258.249-32.6a17.458 17.458 0 01-9.028 15.318l-3.088-31.959c7.022 2.281 12.116 8.874 12.116 16.641zm-248.015-57.35l3.324-16.583h223.638l3.324 16.583H151.679zm152.09 16.583l-2.734 11.055h-68.428l-2.733-11.055h73.895zm34.193-112.596c17.034 17.034 27.207 39.101 29.133 62.847h-69.317V36.365c15.08 4.862 28.824 13.248 40.184 24.609zm-56.768-44.391V123.82H252.45V16.583h28.744zm-45.327 19.805v87.433h-69.301c3.363-40.302 30.999-75.031 69.301-87.433zM212.792 173.57l5.275 21.337a8.292 8.292 0 008.049 6.302h81.412a8.29 8.29 0 008.049-6.302l5.275-21.337h47.737l6.771 70.105c2.557 26.464-9.211 52.61-30.716 68.235l-45.38 32.977a55.196 55.196 0 01-24.154 9.94v-21.504c0-4.579-3.711-8.292-8.292-8.292s-8.292 3.712-8.292 8.292v21.504a55.16 55.16 0 01-24.141-9.939L189 311.909c-21.51-15.622-33.283-41.768-30.726-68.234l6.774-70.105h47.744zm-66.733 24.127l-3.087 31.957a17.464 17.464 0 01-9.017-15.316c0-7.767 5.088-14.359 12.104-16.641zM319.338 495.417H154.607v-36.833c24.332-10.465 40.296-34.375 40.296-61.289 0-15.71-5.579-30.837-15.524-42.759.255-.161.499-.336.757-.493a8.292 8.292 0 00-8.606-14.175c-20.98 12.737-33.506 34.977-33.506 59.49v104.351a8.291 8.291 0 008.292 8.292h173.023a8.293 8.293 0 00-.001-16.584zM166.873 365.416a50.215 50.215 0 0111.448 31.877c0 17.695-9.176 33.668-23.713 42.655v-40.592c-.001-12.691 4.419-24.576 12.265-33.94z"/>
  <path d="M308.542 373.877c0 22.327-18.165 40.493-40.493 40.493-22.327 0-40.493-18.165-40.493-40.493a8.291 8.291 0 00-8.292-8.292 8.291 8.291 0 00-8.292 8.292c0 31.471 25.604 57.076 57.076 57.076s57.076-25.604 57.076-57.076a8.291 8.291 0 10-16.582 0zM395.615 452.943v-53.586c0-24.509-12.53-46.749-33.517-59.49a8.292 8.292 0 00-8.606 14.175c.261.159.506.335.764.497-9.944 11.921-15.521 27.046-15.521 42.755 0 26.914 15.964 50.825 40.297 61.289v36.833h-32.055a8.291 8.291 0 00-8.292 8.292 8.291 8.291 0 008.292 8.292h40.347a8.291 8.291 0 008.292-8.292v-50.703l-.001-.062zm-40.297-55.648a50.21 50.21 0 0111.445-31.873c7.848 9.364 12.269 21.247 12.269 33.936v40.592c-14.538-8.987-23.714-24.96-23.714-42.655zM117.375 471.057h5.73a8.291 8.291 0 008.292-8.292c0-4.058-2.918-7.43-6.769-8.146l-19.922-145.166a8.293 8.293 0 00-8.215-7.164H65.412a8.292 8.292 0 00-8.215 7.164l-19.901 145.02H16.689a8.292 8.292 0 00-8.217 7.183L2.944 502.6a8.29 8.29 0 008.216 9.4h111.945a8.291 8.291 0 008.292-8.292 8.291 8.291 0 00-8.292-8.292H20.647l3.289-24.359h93.439zm-52.467-95.816h32.087l5.129 37.371H59.78l5.128-37.371zm24.352-56.368l5.46 39.786H67.184l5.46-39.786H89.26zM57.503 429.196h46.896l3.469 25.278H54.034l3.469-25.278zM508.02 321.081l-28.797-49.878a8.292 8.292 0 00-7.18-4.146h-57.594a8.29 8.29 0 00-7.18 4.146l-28.797 49.878a8.293 8.293 0 000 8.292l28.797 49.878a8.292 8.292 0 007.18 4.146h20.506v71.307a8.291 8.291 0 008.292 8.292 8.291 8.291 0 008.292-8.292v-71.307h20.506a8.29 8.29 0 007.18-4.146l28.797-49.878a8.298 8.298 0 00-.002-8.292zm-40.765 45.732h-48.02l-24.01-41.586 24.01-41.586h48.02l24.01 41.586-24.01 41.586z"/>
  <path d="M460.934 316.935h-35.377a8.291 8.291 0 00-8.292 8.292 8.291 8.291 0 008.292 8.292h35.377a8.293 8.293 0 000-16.584z"/>
</svg>
