<svg width="130" height="25" viewBox="0 0 130 25" fill="none" xmlns="http://www.w3.org/2000/svg">
<path d="M0.947098 24.3687V1.45605H16.4811V6.11626H6.18983V11.0677H14.6364V15.3396H6.18983V24.3687H0.947098Z" fill="#50E4FF"/>
<path d="M19.2967 24.3687V1.45605H24.6365V19.7085H35.7045V24.3687H19.2967Z" fill="#50E4FF"/>
<path d="M43.4715 12.7184C43.4715 11.3592 43.7627 9.90284 44.2482 8.6407C44.7336 7.28147 45.5103 6.11642 46.4812 4.95137C47.452 3.88341 48.7142 3.00962 50.0734 2.33001C51.5297 1.65039 53.0831 1.35913 54.9278 1.35913C57.0637 1.35913 58.9084 1.84457 60.5589 2.71836C62.1123 3.68923 63.2773 4.85429 64.054 6.3106L59.9763 9.12614C59.588 8.34944 59.1996 7.66982 58.6171 7.18439C58.0346 6.69895 57.4521 6.40769 56.7724 6.21351C56.0928 6.01934 55.4132 5.92225 54.8307 5.92225C53.8598 5.92225 52.8889 6.11643 52.2093 6.50478C51.4326 6.89313 50.8501 7.47565 50.3647 8.05818C49.8792 8.73779 49.4909 9.51449 49.2967 10.2912C49.1025 11.0679 48.9084 11.9417 48.9084 12.7184C48.9084 13.5922 49.0054 14.466 49.2967 15.3397C49.588 16.2135 49.9763 16.8931 50.4618 17.5728C50.9472 18.2524 51.6268 18.7378 52.4035 19.1262C53.1802 19.5145 53.9569 19.7087 54.9278 19.7087C55.6074 19.7087 56.1899 19.6116 56.8695 19.4174C57.5492 19.2232 58.1317 18.8349 58.7142 18.4465C59.2967 17.9611 59.6851 17.3786 59.9763 16.6019L64.3453 19.1262C63.8598 20.2912 63.1802 21.165 62.1123 22.0388C61.0443 22.8155 59.8793 23.398 58.6171 23.8835C57.355 24.2718 55.9958 24.466 54.7336 24.466C53.0831 24.466 51.5297 24.1747 50.1705 23.4951C48.8113 22.8155 47.5491 21.9417 46.5783 20.7766C45.6074 19.6116 44.8307 18.3495 44.2482 16.9902C43.7627 15.631 43.4715 14.1747 43.4715 12.7184Z" fill="#50E4FF"/>
<path d="M82.9861 24.369H77.8405V15.0486C77.8405 13.9806 77.6463 13.2039 77.1609 12.7185C76.6754 12.2331 76.0929 11.9418 75.4133 11.9418C75.0249 11.9418 74.6366 12.0389 74.1512 12.3302C73.6657 12.6214 73.1803 12.9127 72.7919 13.301C72.4036 13.6894 72.1123 14.2719 71.821 14.8544V24.4661H66.5783V0.776733H71.724V10.4855C72.3065 9.51462 73.1803 8.73791 74.1512 8.15539C75.2191 7.57286 76.2871 7.37869 77.5492 7.37869C78.7143 7.37869 79.6851 7.57287 80.3648 7.96122C81.0444 8.34957 81.6269 8.835 81.9182 9.51462C82.2094 10.1942 82.5007 10.7768 82.6949 11.5535C82.889 12.3302 82.889 13.0098 82.889 13.7865V24.369H82.9861Z" fill="#50E4FF"/>
<path d="M85.3162 19.4175C85.3162 18.3496 85.6075 17.3787 86.2871 16.5049C86.8696 15.6311 87.7434 15.0486 88.9084 14.5631C89.9764 14.0777 91.2385 13.8835 92.6949 13.8835C93.3745 13.8835 94.0541 13.9806 94.7337 14.0777C95.4133 14.1748 95.9958 14.369 96.4813 14.5631V13.7864C96.4813 12.9127 96.19 12.233 95.6075 11.7476C95.025 11.2622 94.1512 11.068 93.0832 11.068C92.1123 11.068 91.2386 11.2622 90.4619 11.5534C89.5881 11.8447 88.7143 12.3301 87.8405 12.9127L86.2871 9.61168C87.4521 8.83498 88.6172 8.34954 89.7822 7.96119C90.9473 7.57284 92.3065 7.37866 93.6657 7.37866C96.19 7.37866 98.2289 7.96119 99.5881 9.12624C101.044 10.2913 101.724 12.0389 101.724 14.2719V18.6408C101.724 19.1263 101.821 19.5146 101.918 19.7088C102.015 19.903 102.404 20.0001 102.792 20.0971V24.369C102.404 24.4661 101.918 24.5632 101.627 24.5632C101.239 24.5632 100.947 24.6603 100.656 24.6603C99.6852 24.6603 98.9085 24.4661 98.423 24.0777C97.9376 23.6894 97.6463 23.2039 97.4522 22.5243L97.3551 21.7476C96.5784 22.7185 95.7046 23.4952 94.6366 23.9806C93.5686 24.4661 92.5007 24.7573 91.3356 24.7573C90.1706 24.7573 89.1997 24.5632 88.3259 24.0777C87.4521 23.5923 86.7725 23.0098 86.19 22.136C85.6075 21.2622 85.3162 20.3884 85.3162 19.4175ZM95.6075 20.0001C95.8017 19.8059 95.9958 19.6117 96.19 19.4175C96.3842 19.2233 96.3842 18.9321 96.3842 18.7379V17.2816C95.9958 17.0874 95.5104 16.9903 94.9279 16.8932C94.4424 16.7962 93.957 16.7962 93.4716 16.7962C92.5007 16.7962 91.724 16.9903 91.1415 17.3787C90.5589 17.767 90.1706 18.3496 90.1706 19.0292C90.1706 19.4175 90.2677 19.7088 90.4619 20.0971C90.656 20.3884 90.9473 20.6797 91.3356 20.8738C91.724 21.068 92.1123 21.1651 92.6949 21.1651C93.2774 21.1651 93.7628 21.068 94.2483 20.8738C94.8308 20.4855 95.2191 20.2913 95.6075 20.0001Z" fill="#50E4FF"/>
<path d="M116.093 11.845C114.831 11.845 113.666 12.0392 112.695 12.4275C111.724 12.8159 110.947 13.3984 110.462 14.1751V24.3693H105.316V7.67025H110.074V10.8741C110.656 9.70909 111.433 8.8353 112.307 8.15569C113.277 7.47608 114.248 7.18481 115.219 7.18481C115.413 7.18481 115.608 7.18481 115.705 7.18481C115.802 7.18481 115.899 7.18481 115.996 7.18481V11.845H116.093Z" fill="#50E4FF"/>
<path d="M129.2 23.4955C128.714 23.6896 128.229 23.8838 127.646 24.078C127.064 24.2722 126.481 24.4663 125.899 24.5634C125.316 24.6605 124.637 24.7576 124.054 24.7576C123.18 24.7576 122.404 24.6605 121.724 24.3693C121.044 24.078 120.462 23.5925 119.976 22.9129C119.588 22.2333 119.394 21.3595 119.394 20.2916V11.5537H117.258V7.67018H119.394V2.23328H124.54V7.67018H128.035V11.5537H124.54V18.4469C124.54 19.0294 124.637 19.4178 124.928 19.612C125.219 19.8061 125.608 20.0003 125.996 20.0003C126.384 20.0003 126.773 19.9032 127.161 19.8061C127.549 19.709 127.938 19.5149 128.229 19.4178L129.2 23.4955Z" fill="#50E4FF"/>
</svg>
