<svg width="36" height="36" viewBox="0 0 36 36" fill="none" xmlns="http://www.w3.org/2000/svg">
<path d="M30.57 12.855L28.725 15.63C29.6148 17.4046 30.0504 19.3722 29.9928 21.3566C29.9352 23.3409 29.3862 25.28 28.395 27H7.60501C6.31677 24.7652 5.78296 22.1747 6.08272 19.6126C6.38249 17.0505 7.49988 14.6532 9.26923 12.7761C11.0386 10.899 13.3657 9.64206 15.9056 9.19154C18.4455 8.74102 21.063 9.12095 23.37 10.275L26.145 8.43C23.3197 6.61832 19.9685 5.80651 16.6273 6.1244C13.2862 6.4423 10.1482 7.87154 7.71525 10.1835C5.28233 12.4955 3.69506 15.5566 3.20734 18.8772C2.71962 22.1978 3.35964 25.5861 5.02501 28.5C5.28678 28.9534 5.66265 29.3304 6.11526 29.5936C6.56787 29.8567 7.08147 29.9968 7.60501 30H28.38C28.9086 30.0021 29.4284 29.8645 29.8868 29.6011C30.3451 29.3377 30.7257 28.9578 30.99 28.5C32.3721 26.1059 33.0657 23.3764 32.9942 20.6129C32.9227 17.8495 32.089 15.1595 30.585 12.84L30.57 12.855ZM15.885 23.115C16.1636 23.3939 16.4945 23.6152 16.8587 23.7662C17.2229 23.9172 17.6133 23.9949 18.0075 23.9949C18.4018 23.9949 18.7921 23.9172 19.1563 23.7662C19.5205 23.6152 19.8514 23.3939 20.13 23.115L28.62 10.38L15.885 18.87C15.6061 19.1486 15.3848 19.4795 15.2338 19.8437C15.0829 20.2079 15.0052 20.5983 15.0052 20.9925C15.0052 21.3867 15.0829 21.7771 15.2338 22.1413C15.3848 22.5055 15.6061 22.8364 15.885 23.115Z" fill="white"/>
</svg>
