<svg width="36" height="36" viewBox="0 0 36 36" fill="none" xmlns="http://www.w3.org/2000/svg">
<path d="M30.3749 18.2108H17.789V5.62485C17.789 5.47016 17.6624 5.3436 17.5077 5.3436H16.5936C14.7469 5.34057 12.9178 5.70274 11.2115 6.40926C9.50522 7.11578 7.95549 8.15271 6.65146 9.46039C5.36724 10.7407 4.34398 12.2582 3.63857 13.9288C2.90453 15.6614 2.52786 17.5244 2.53115 19.4061C2.52813 21.2529 2.89029 23.082 3.59681 24.7883C4.30333 26.4945 5.34026 28.0443 6.64795 29.3483C7.93818 30.6385 9.44287 31.6545 11.1163 32.3612C12.8489 33.0952 14.7119 33.4719 16.5936 33.4686C18.4404 33.4716 20.2695 33.1095 21.9758 32.4029C23.6821 31.6964 25.2318 30.6595 26.5358 29.3518C27.8261 28.0616 28.8421 26.5569 29.5487 24.8834C30.2828 23.1508 30.6594 21.2878 30.6562 19.4061V18.492C30.6562 18.3373 30.5296 18.2108 30.3749 18.2108ZM24.8097 27.6959C23.721 28.7761 22.43 29.6308 21.0105 30.2112C19.591 30.7915 18.0709 31.0861 16.5374 31.078C13.4401 31.0639 10.5292 29.851 8.33896 27.6608C6.13467 25.4565 4.92177 22.5245 4.92177 19.4061C4.92177 16.2877 6.13467 13.3557 8.33896 11.1514C10.2585 9.23188 12.73 8.06118 15.3983 7.79399V20.6014H28.2058C27.9351 23.2838 26.7538 25.7694 24.8097 27.6959ZM33.4687 16.2561L33.3772 15.2647C33.0784 12.0268 31.6405 8.97172 29.3272 6.66547C27.0124 4.35499 23.9635 2.92508 20.7069 2.6225L19.712 2.5311C19.5468 2.51703 19.4061 2.6436 19.4061 2.80883V16.3123C19.4061 16.467 19.5327 16.5936 19.6874 16.5936L33.1874 16.5584C33.3526 16.5584 33.4827 16.4178 33.4687 16.2561ZM21.7897 14.21V5.18891C24.0044 5.65244 26.0367 6.7492 27.6397 8.34594C29.2464 9.94907 30.3468 11.9881 30.8038 14.1854L21.7897 14.21Z" fill="#FFFFFF"/>
</svg>
