<svg xmlns="http://www.w3.org/2000/svg" viewBox="0 0 512.002 512.002">
  <path fill="#fce8ca" d="M288.068 83.598h201.403v270.056H282.608"/>
  <path fill="#e6e6e6" d="M366.358 402.068v101.033H123.736V402.068c0-27.011 15.559-50.394 38.196-61.657 9.226-4.596 19.621-7.178 30.628-7.178h104.962c11.007 0 21.402 2.582 30.628 7.178 22.649 11.262 38.208 34.645 38.208 61.657z"/>
  <path fill="#ccc" d="M234.975 333.234h-42.41c-38.014 0-68.831 30.816-68.831 68.831V503.1h42.41V402.065c.001-38.014 30.817-68.831 68.831-68.831z"/>
  <g fill="#f7cba4">
    <path d="M328.15 340.409l-83.104 81.623-83.115-81.623c9.226-4.596 19.621-7.179 30.628-7.179h104.962c11.007.001 21.402 2.583 30.629 7.179z"/>
    <path d="M207.477 351.39l-45.685-33.193a84.236 84.236 0 01-34.332-76.249l7.924-82c5.458-56.476 52.917-99.571 109.656-99.571 56.739 0 104.199 43.094 109.656 99.571l7.924 82a84.235 84.235 0 01-34.332 76.249l-45.685 33.193c-22.398 16.272-52.728 16.272-75.126 0z"/>
  </g>
  <path fill="#e0b394" d="M155.89 258.108a50.848 50.848 0 0011.831 35.726l47.749 58.675a38.02 38.02 0 008.38 7.457 63.49 63.49 0 01-16.371-8.581l-45.686-33.188a84.225 84.225 0 01-34.323-76.248l7.913-82.002c5.409-55.926 51.997-98.729 108.011-99.542-34.501.835-73.569 33.355-75.606 67.99L155.89 258.108z"/>
  <path fill="#666" d="M425.723 255.225s-8.169 94.467-97.427 62.971a84.225 84.225 0 0034.323-76.248l-7.924-82.002c-43.928 19.499-76.259-21.714-76.259-21.714s-37.072 53.689-115.947 61.179c-9.683.924-20 1.146-30.962.49l-4.062 42.047a84.211 84.211 0 0034.334 76.248c-89.258 31.496-97.427-62.971-97.427-62.971a19.11 19.11 0 006.811 10.328 19.078 19.078 0 0011.719 4.007c9.894 0 18.152-7.546 19.054-17.395l8.269-90.26c3.194-34.846 19.41-65.608 43.561-87.656.289-.267.579-.523.868-.768.801 2.037 6.744 3.706 16.015 5.031 43.616 6.21 160.977 4.53 164.772-5.031 24.641 22.081 41.201 53.165 44.429 88.424l8.269 90.26a19.081 19.081 0 006.155 12.387 19.086 19.086 0 0012.899 5.008 19.147 19.147 0 0018.53-14.335z"/>
  <path fill="#4d4d4d" d="M162.489 199.411c-9.683.924-20 1.146-30.962.49l-4.062 42.047a84.211 84.211 0 0034.334 76.248c-89.258 31.496-97.427-62.971-97.427-62.971a19.11 19.11 0 006.811 10.328 19.078 19.078 0 0011.719 4.007c9.894 0 18.152-7.546 19.054-17.395l8.269-90.26c3.194-34.846 19.41-65.608 43.561-87.656.289-.267.579-.523.868-.768.801 2.037 6.744 3.706 16.015 5.031l22.426 21.747s-50.294 33.889-30.606 99.152z"/>
  <path fill="#e6e6e6" d="M353.235 28.507l-17.796 44.974c-4.596 11.597-9.182 23.194-13.778 34.791a208.053 208.053 0 00-123.392-9.282 206.305 206.305 0 00-29.838 9.282c-4.596-11.597-9.182-23.194-13.778-34.791-5.932-14.991-11.875-29.983-17.807-44.974a294.004 294.004 0 0150.572-14.947 293.978 293.978 0 01165.817 14.947z"/>
  <path fill="#ccc" d="M198.269 98.99a206.305 206.305 0 00-29.838 9.282c-4.596-11.597-9.182-23.194-13.778-34.791-5.932-14.991-11.875-29.983-17.807-44.974a294.004 294.004 0 0150.572-14.947l10.851 85.43z"/>
  <path fill="#e6f6fc" d="M104.926 82.131c-10.123 27.06 3.605 57.198 30.665 67.32a52.581 52.581 0 0012.151 2.965c23.396 2.799 46.542-10.573 55.169-33.631 10.123-27.06-3.605-57.198-30.665-67.32a51.827 51.827 0 00-8.273-2.346c-24.676-4.869-49.945 8.683-59.047 33.012z"/>
  <g fill="#c0e7f9">
    <path d="M104.926 82.131c-10.123 27.06 3.605 57.198 30.665 67.32a52.581 52.581 0 0012.151 2.965l16.231-103.297c-24.676-4.869-49.945 8.683-59.047 33.012z"/>
    <circle cx="48.684" cy="452.237" r="27.267"/>
    <circle cx="131.04" cy="452.237" r="27.267"/>
  </g>
  <path d="M149.675 338.715c-21.121 12.823-33.731 35.211-33.731 59.889a8.346 8.346 0 008.347 8.347 8.346 8.346 0 008.347-8.347c0-18.794 9.608-35.848 25.701-45.619a8.348 8.348 0 00-8.664-14.27zM287.473 495.308H253.95v-69.217l59.826-58.758a8.346 8.346 0 00.107-11.804 8.345 8.345 0 00-11.803-.106l-56.476 55.468-56.476-55.468a8.346 8.346 0 00-11.803.106 8.346 8.346 0 00.107 11.804l59.826 58.758v69.217H124.293a8.346 8.346 0 00-8.347 8.347 8.346 8.346 0 008.347 8.347h163.181a8.347 8.347 0 10-.001-16.694zM341.519 338.715a8.348 8.348 0 00-8.664 14.271c16.1 9.775 25.712 26.829 25.712 45.619v96.704h-43.27c-4.611 0-8.347 3.737-8.347 8.347s3.736 8.347 8.347 8.347h51.617a8.346 8.346 0 008.347-8.347V398.604c0-24.674-12.614-47.062-33.742-59.889zM196.054 236.776a8.346 8.346 0 008.347-8.347v-13.35a8.346 8.346 0 00-8.347-8.347 8.346 8.346 0 00-8.347 8.347v13.351a8.347 8.347 0 008.347 8.346zM281.961 194.827a18.523 18.523 0 0113.183-5.46 18.52 18.52 0 0113.182 5.46 8.321 8.321 0 005.903 2.445 8.319 8.319 0 005.902-2.445 8.346 8.346 0 00.001-11.805c-6.674-6.674-15.548-10.349-24.987-10.349-9.438 0-18.312 3.675-24.986 10.349a8.346 8.346 0 00-.001 11.805 8.346 8.346 0 0011.803 0zM295.144 206.732a8.346 8.346 0 00-8.347 8.347v13.351a8.346 8.346 0 008.347 8.347 8.346 8.346 0 008.347-8.347v-13.351a8.346 8.346 0 00-8.347-8.347zM245.599 309.694c10.917 0 21.834-4.156 30.145-12.466a8.347 8.347 0 10-11.805-11.805c-10.112 10.112-26.567 10.112-36.679 0a8.347 8.347 0 10-11.805 11.805c8.31 8.31 19.228 12.466 30.144 12.466zM236.87 260.314h17.454c4.611 0 8.347-3.737 8.347-8.347s-3.736-8.347-8.347-8.347h-.38v-17.251c0-4.61-3.736-8.347-8.347-8.347s-8.347 3.737-8.347 8.347v17.251h-.381a8.348 8.348 0 00.001 16.694z"/>
  <path d="M92.954 323.474c10.411 6.712 22.39 10.07 35.829 10.07 9.929 0 20.661-1.846 32.139-5.515l42.211 30.674c12.7 9.227 27.579 13.841 42.464 13.841 14.881 0 29.77-4.614 42.473-13.841l42.212-30.675c11.479 3.669 22.209 5.515 32.14 5.515 13.437-.001 25.42-3.359 35.829-10.07 31.986-20.623 36.18-65.09 36.341-66.973a8.347 8.347 0 00-16.393-2.819 10.804 10.804 0 01-10.452 8.087 10.771 10.771 0 01-7.274-2.829 10.768 10.768 0 01-3.467-6.982l-8.269-90.26c-3.141-34.303-18.314-65.991-42.892-89.874 5.238-13.231 10.475-26.463 15.709-39.692a8.347 8.347 0 00-4.69-10.831c-71.748-28.399-150.779-28.4-222.535 0a8.347 8.347 0 00-4.69 10.833c1.696 4.287 6.551 6.386 10.832 4.69 65.206-25.806 136.762-26.794 202.443-2.959-6.414 16.212-12.831 32.422-19.251 48.638l-6.197 15.656c-28.283-9.933-58.74-13.946-88.609-11.625a8.347 8.347 0 00-7.675 8.969 8.344 8.344 0 008.969 7.675c30.125-2.342 60.898 2.3 88.993 13.423a8.347 8.347 0 0010.834-4.689l9.138-23.085c18.831 20.431 30.435 46.431 32.996 74.395l8.27 90.268a27.436 27.436 0 008.84 17.785 27.437 27.437 0 0018.525 7.189c1.555 0 3.086-.13 4.58-.383-4.161 11.145-11.256 23.741-23.189 31.404-11.444 7.35-25.962 9.155-43.259 5.453 18.593-19.295 28.223-46.127 25.603-73.237l-7.924-82.002a8.346 8.346 0 00-11.695-6.827c-37.32 16.566-65.153-17.784-66.305-19.236-1.637-2.087-4.126-3.262-6.822-3.191a8.347 8.347 0 00-6.614 3.6c-.441.638-45.164 63.75-139.539 58.079a8.324 8.324 0 00-8.809 7.529l-4.061 42.047c-2.621 27.114 7.013 53.947 25.61 73.24-17.297 3.701-31.812 1.895-43.255-5.455-11.936-7.665-19.031-20.265-23.193-31.411 1.509.257 3.044.388 4.583.388 14.299 0 26.063-10.74 27.366-24.981l8.269-90.26a8.347 8.347 0 00-7.55-9.074 8.338 8.338 0 00-9.074 7.55L94.2 251.957a10.737 10.737 0 01-10.741 9.808c-2.417 0-4.702-.78-6.608-2.258a10.835 10.835 0 01-3.841-5.818c-1.087-4.202-5.217-6.874-9.49-6.139a8.345 8.345 0 00-6.907 8.947c.161 1.887 4.355 46.355 36.341 66.977zm43.374-80.168l3.303-34.184c1.612.037 3.204.055 4.789.055 47.42-.002 82.041-16.144 103.315-30.356 15.133-10.108 25.638-20.512 31.737-27.384 4.092 3.859 9.853 8.605 16.991 12.742 16.696 9.675 34.3 12.279 51.504 7.724l6.9 71.403c2.574 26.642-9.274 52.963-30.922 68.692h-.001l-45.684 33.198c-19.538 14.19-45.786 14.191-65.312.001l-45.689-33.2c-21.655-15.726-33.506-42.047-30.931-68.691zM279.547 438.171a8.346 8.346 0 008.347 8.347h43.405a8.346 8.346 0 008.347-8.347 8.346 8.346 0 00-8.347-8.347h-43.405a8.346 8.346 0 00-8.347 8.347z"/>
  <path d="M154.475 161.671c33.446 0 60.656-27.209 60.656-60.656S187.922 40.36 154.475 40.36 93.82 67.569 93.82 101.016s27.209 60.655 60.655 60.655zm0-104.617c24.24 0 43.961 19.721 43.961 43.961s-19.721 43.961-43.961 43.961-43.961-19.721-43.961-43.961 19.721-43.961 43.961-43.961zM131.599 488.411c19.638 0 35.614-15.976 35.614-35.614v-74.011a8.346 8.346 0 00-8.347-8.347 8.346 8.346 0 00-8.347 8.347v43.86a35.395 35.395 0 00-18.92-5.463c-16.763 0-30.849 11.645-34.617 27.267H83.858c-3.767-15.622-17.854-27.267-34.617-27.267a35.395 35.395 0 00-18.92 5.463v-43.86c0-4.61-3.736-8.347-8.347-8.347s-8.347 3.737-8.347 8.347v74.011c0 19.638 15.976 35.614 35.614 35.614 16.763 0 30.849-11.645 34.617-27.267h13.125c3.767 15.622 17.854 27.267 34.616 27.267zm0-54.534c10.433 0 18.92 8.487 18.92 18.92 0 10.433-8.487 18.92-18.92 18.92s-18.92-8.487-18.92-18.92c0-10.433 8.487-18.92 18.92-18.92zm-82.358 37.84c-10.433 0-18.92-8.487-18.92-18.92 0-10.433 8.487-18.92 18.92-18.92s18.92 8.487 18.92 18.92c0 10.433-8.488 18.92-18.92 18.92zM490.029 150.726a8.346 8.346 0 00-8.347 8.347v186.789H377.621a8.346 8.346 0 00-8.347 8.347 8.346 8.346 0 008.347 8.347h112.408a8.346 8.346 0 008.347-8.347V159.074a8.347 8.347 0 00-8.347-8.348zM490.029 75.807H376.507a8.346 8.346 0 00-8.347 8.347 8.346 8.346 0 008.347 8.347h105.175v38.748a8.346 8.346 0 008.347 8.347 8.346 8.346 0 008.347-8.347V84.154a8.347 8.347 0 00-8.347-8.347z"/>
  <path d="M436.607 116.597a8.346 8.346 0 008.347-8.347 8.346 8.346 0 00-8.347-8.347h-33.388a8.346 8.346 0 00-8.347 8.347v48.97a8.346 8.346 0 008.347 8.347h33.388a8.346 8.346 0 008.347-8.347 8.346 8.346 0 00-8.347-8.347h-25.041v-7.791h8.347a8.346 8.346 0 008.347-8.347 8.346 8.346 0 00-8.347-8.347h-8.347v-7.791h25.041zM443.285 178.922H429.93a8.346 8.346 0 00-8.347 8.347v40.066a8.346 8.346 0 008.347 8.347 8.346 8.346 0 008.347-8.347v-5.008h5.008c11.966 0 21.702-9.736 21.702-21.702 0-11.967-9.736-21.703-21.702-21.703zm0 26.711h-5.008v-10.017h5.008a5.014 5.014 0 015.008 5.008 5.014 5.014 0 01-5.008 5.009zM457.753 315.814h-35.614c-4.611 0-8.347 3.737-8.347 8.347s3.736 8.347 8.347 8.347h35.614c4.611 0 8.347-3.737 8.347-8.347s-3.736-8.347-8.347-8.347zM457.753 281.313h-12.242c-4.611 0-8.347 3.737-8.347 8.347s3.736 8.347 8.347 8.347h12.242c4.611 0 8.347-3.737 8.347-8.347s-3.736-8.347-8.347-8.347z"/>
  <circle cx="154.468" cy="101.013" r="8.347"/>
</svg>
