<svg xmlns="http://www.w3.org/2000/svg" viewBox="0 0 511.999 511.999">
  <path fill="#666" d="M279.97 63.235c5.818-24.848 28.105-43.348 54.726-43.348 43.902 0 79.496 35.594 79.496 79.503v168.597c0 21.436 17.383 38.818 38.818 38.818h10.745s-53.387 35.942-107.545 12.112l-68.627-40.334"/>
  <path fill="#4d4d4d" d="M393.62 318.917l-68.627-40.334-7.613-215.348c4.518-19.297 18.969-34.758 37.668-40.706a79.549 79.549 0 00-20.353-2.641c-26.621 0-48.908 18.499-54.726 43.348l7.612 215.348 68.627 40.334c20.614 9.07 41.112 9.477 58.6 6.507a95.433 95.433 0 01-21.188-6.508z"/>
  <circle cx="88.818" cy="333.397" r="81.237" fill="#ea8249"/>
  <path fill="#d36f3d" d="M54.779 333.392c0-44.866 15.24-81.237 34.04-81.237-44.866 0-81.237 36.372-81.237 81.237s36.372 81.237 81.237 81.237c-18.8 0-34.04-36.371-34.04-81.237z"/>
  <path fill="#90bc42" d="M298.518 325.709H196.366c-36.997 0-66.989 29.992-66.989 66.989v98.331h236.13v-98.331c0-36.997-29.991-66.989-66.989-66.989z"/>
  <path fill="#e0b394" d="M295.236 288.339v61.021c0 26.396-21.401 47.797-47.797 47.797-26.403 0-47.797-21.401-47.797-47.797v-61.021h95.594z"/>
  <path fill="#83a538" d="M237.641 325.709h-41.275c-36.997 0-66.989 29.992-66.989 66.989v98.331h41.275v-98.331c.001-36.997 29.992-66.989 66.989-66.989z"/>
  <g fill="#e0b394">
    <path d="M133.256 234.147c-13.431-.596-24.122-11.677-24.122-25.249 0-13.951 11.308-25.27 25.27-25.27 1.256 0 2.491.087 3.704.271M361.609 234.147c13.431-.596 24.133-11.677 24.133-25.249 0-13.951-11.319-25.27-25.281-25.27-1.257 0-2.502.097-3.704.271"/>
  </g>
  <path fill="#f7cba4" d="M210.88 343.378l-44.463-32.304a81.98 81.98 0 01-33.413-74.209l7.712-79.805c5.312-54.965 51.501-96.906 106.722-96.906s101.41 41.941 106.722 96.906l7.712 79.805a81.979 81.979 0 01-33.413 74.209l-44.463 32.304c-21.799 15.838-51.317 15.838-73.116 0z"/>
  <path fill="#e0b394" d="M160.673 252.593a49.494 49.494 0 0011.514 34.77l46.471 57.104a37.017 37.017 0 008.156 7.257 61.803 61.803 0 01-15.933-8.351l-44.464-32.3a81.976 81.976 0 01-33.405-74.208l7.701-79.808c5.264-54.429 50.605-96.088 105.121-96.878-33.578.812-71.6 32.462-73.583 66.171l-11.578 126.243z"/>
  <path fill="#666" d="M342.562 117.864H152.315c17.981-34.51 54.05-57.711 95.124-57.711 27.61 0 52.967 10.485 72.074 27.848a107.47 107.47 0 0123.049 29.863z"/>
  <path fill="#4d4d4d" d="M152.315 117.863h47.659c8.972-34.51 26.97-57.711 47.464-57.711-41.073.001-77.143 23.202-95.123 57.711z"/>
  <path fill="#90bc42" d="M353.068 117.864l9.543 45.85H132.265l9.543-45.85H342.562z"/>
  <path fill="#83a538" d="M152.315 117.863h-10.507l-9.543 45.851h64.99l9.543-45.851z"/>
  <g fill="#71c5f4">
    <path d="M320.475 411.905h44.153v79.125h-44.153zM427.751 411.905h44.153v79.125h-44.153z"/>
  </g>
  <path d="M154.624 331.044c-20.556 12.479-32.829 34.269-32.829 58.286v64.441a8.124 8.124 0 0016.248 0V389.33c0-18.292 9.35-34.889 25.012-44.398a8.123 8.123 0 10-8.431-13.888zM293.929 483.446H138.043v-2.596a8.124 8.124 0 00-16.248 0v10.72a8.124 8.124 0 008.124 8.124h164.01a8.124 8.124 0 000-16.248zM284.873 364.533c-6.044 15.212-20.525 25.042-36.893 25.042-16.36 0-30.838-9.83-36.882-25.042a8.122 8.122 0 00-10.549-4.55 8.123 8.123 0 00-4.55 10.549c8.518 21.438 28.922 35.291 51.981 35.291 23.067 0 43.475-13.853 51.992-35.291a8.125 8.125 0 00-15.099-5.999zM114.659 362.675a89.096 89.096 0 00-17.176-3.255v-50.965a88.605 88.605 0 0025.217-6.057 8.123 8.123 0 00-6.064-15.072 72.395 72.395 0 01-19.153 4.793v-30.851a72.796 72.796 0 0112.766 2.577 8.122 8.122 0 0010.104-5.469 8.126 8.126 0 00-5.469-10.104 89.426 89.426 0 00-25.524-3.701C40.087 244.571 0 284.658 0 333.933s40.087 89.361 89.361 89.361a90.02 90.02 0 0018.002-1.815 8.124 8.124 0 00-3.259-15.917c-2.18.446-4.392.779-6.619 1.025V375.74a72.752 72.752 0 0112.583 2.521c4.302 1.272 8.82-1.193 10.089-5.496a8.126 8.126 0 00-5.498-10.09zm-33.423-70.553a72.319 72.319 0 01-37.324-15.398c10.49-8.351 23.312-13.885 37.324-15.442v30.84zm-48.909-3.861c13.926 11.593 30.849 18.573 48.909 20.189v50.968c-18.065 1.616-34.986 8.597-48.904 20.192-10.053-12.524-16.086-28.406-16.086-45.678 0-17.268 6.031-33.147 16.081-45.671zm48.909 87.486v30.837c-14.009-1.557-26.828-7.088-37.317-15.437a72.247 72.247 0 0137.317-15.4zM503.875 443.884h-23.303v-31.439a8.124 8.124 0 00-8.124-8.124h-44.153a8.124 8.124 0 00-8.124 8.124v31.439H373.3v-31.439a8.124 8.124 0 00-8.124-8.124h-44.154a8.124 8.124 0 00-8.124 8.124v31.439h-23.302a8.124 8.124 0 000 16.248h23.302v31.439a8.124 8.124 0 008.124 8.124h44.154a8.124 8.124 0 008.124-8.124v-31.439h46.872v31.439a8.124 8.124 0 008.124 8.124h44.153a8.124 8.124 0 008.124-8.124v-31.439h23.303a8.124 8.124 0 10-.001-16.248zm-146.823 39.562h-27.907v-62.878h27.907v62.878zm107.272 0h-27.906v-62.878h27.906v62.878zM199.762 215.061a8.124 8.124 0 00-8.124 8.124v12.994a8.124 8.124 0 0016.248 0v-12.994a8.125 8.125 0 00-8.124-8.124zM271.882 197.402a8.122 8.122 0 000 11.488 8.122 8.122 0 0011.488 0c7.074-7.073 18.584-7.073 25.658 0a8.099 8.099 0 005.744 2.38 8.095 8.095 0 005.744-2.38 8.122 8.122 0 000-11.488c-13.406-13.41-35.226-13.41-48.634 0zM212.591 208.891c1.586 1.586 3.665 2.38 5.744 2.38s4.158-.793 5.744-2.38a8.122 8.122 0 000-11.488c-13.407-13.408-35.226-13.41-48.635 0a8.122 8.122 0 000 11.488 8.122 8.122 0 0011.488 0c7.075-7.073 18.583-7.074 25.659 0zM296.2 215.061a8.124 8.124 0 00-8.124 8.124v12.994a8.124 8.124 0 0016.248 0v-12.994a8.124 8.124 0 00-8.124-8.124zM273.581 279.338c-14.116 14.116-37.084 14.117-51.202 0a8.121 8.121 0 00-11.488 0 8.122 8.122 0 000 11.488c10.225 10.225 23.657 15.339 37.09 15.339 13.432 0 26.864-5.113 37.09-15.339a8.122 8.122 0 000-11.488 8.124 8.124 0 00-11.49 0zM239.487 261.794h16.986a8.124 8.124 0 000-16.248h-.369v-16.789a8.124 8.124 0 00-16.248 0v16.789h-.369a8.124 8.124 0 000 16.248z"/>
  <path d="M125.148 241.186c-1.355 30.046 12.561 59.222 37.038 77.007l44.463 32.299c12.362 8.983 26.845 13.473 41.332 13.472 14.484-.001 28.971-4.492 41.33-13.472l44.465-32.3c24.476-17.784 38.392-46.962 37.037-77.009a33.327 33.327 0 0023.595-31.94c0-17.182-13.05-31.371-29.762-33.191l-.364-3.76a8.128 8.128 0 005.179-2.91 8.125 8.125 0 001.65-6.782l-9.549-45.851a8.124 8.124 0 00-7.953-6.468h-5.702a115.192 115.192 0 00-22.39-27.752 115.17 115.17 0 00-35.571-22.067c6.736-19.028 24.657-31.909 45.291-31.909 39.355 0 71.372 32.021 71.372 71.379v168.597c0 19.676 12.168 36.562 29.374 43.531-19.213 6.991-47.63 12.427-75.959-.038a8.121 8.121 0 00-10.707 4.164 8.123 8.123 0 004.164 10.707c14.739 6.485 29.328 8.914 42.929 8.913 39.547-.003 70.689-20.554 72.424-21.722a8.124 8.124 0 00-4.537-14.864h-10.745c-16.926 0-30.695-13.769-30.695-30.695V99.932c0-48.318-39.306-87.627-87.619-87.627-27.829 0-51.969 17.519-60.812 43.324a115.535 115.535 0 00-26.444-3.059c-41.496 0-79.327 21.991-99.918 57.711h-5.712a8.124 8.124 0 00-7.953 6.468L124.85 162.6a8.107 8.107 0 006.829 9.692l-.363 3.757c-16.711 1.816-29.762 16.007-29.762 33.192a33.326 33.326 0 0023.594 31.945zm199.079 63.861l-44.465 32.3c-19.01 13.814-44.554 13.813-63.564 0l-44.463-32.299c-21.076-15.314-32.611-40.931-30.104-66.854l6.363-65.814h199.974l6.363 65.814c2.506 25.923-9.029 51.54-30.104 66.853zm53.934-95.804a17.11 17.11 0 01-8.854 15.014l-3.029-31.322c6.886 2.229 11.883 8.693 11.883 16.308zm-49.573-98.962h-72.483V69.168a98.794 98.794 0 0158.489 25.388 99.279 99.279 0 0113.994 15.725zM239.857 69.16v41.121h-72.515c16.893-23.69 43.309-38.75 72.515-41.121zm-90.899 57.368h198.045l6.165 29.604H142.792l6.166-29.604zm-19.275 66.404l-3.029 31.327a17.109 17.109 0 01-8.854-15.017c.001-7.617 4.997-14.082 11.883-16.31z"/>
  <path d="M330.173 333.772a8.124 8.124 0 002.729 11.16c15.661 9.508 25.012 26.105 25.012 44.398a8.124 8.124 0 0016.248 0c0-24.017-12.272-45.807-32.829-58.286a8.124 8.124 0 00-11.16 2.728z"/>
</svg>
