<svg xmlns="http://www.w3.org/2000/svg" viewBox="0 0 512 512">
  <circle cx="84.522" cy="65.076" r="51.922" fill="#c0e7f9"/>
  <path fill="#ead4b7" d="M7.877 413.293h203.67v69.027H7.877z"/>
  <g fill="#fce8ca">
    <path d="M107.462 482.315V359.1c0-14.655-11.88-26.535-26.535-26.535H7.877v123.216h73.051c14.654 0 26.534 11.879 26.534 26.534zM107.462 482.315V359.1c0-14.655 11.88-26.535 26.535-26.535h73.051v123.216h-73.051c-14.655 0-26.535 11.879-26.535 26.534z"/>
  </g>
  <path fill="#71c5f4" d="M333.972 334.359H227.845c-38.436 0-69.596 31.159-69.596 69.596v93.762h245.318v-93.762c.001-38.437-31.157-69.596-69.595-69.596z"/>
  <path fill="#64b4d8" d="M270.726 334.359h-42.881c-38.436 0-69.596 31.159-69.596 69.596v93.762h42.881v-93.762c.001-38.437 31.16-69.596 69.596-69.596z"/>
  <path fill="#f7cba4" d="M242.926 352.718l-46.193-33.561a85.172 85.172 0 01-34.714-77.096l8.012-82.911c5.519-57.104 53.505-100.677 110.875-100.677s105.356 43.573 110.875 100.677l8.012 82.911a85.169 85.169 0 01-34.714 77.096l-46.193 33.561c-22.648 16.454-53.314 16.454-75.96 0z"/>
  <path fill="#e0b394" d="M190.765 258.401a51.421 51.421 0 0011.962 36.123l48.279 59.326a38.453 38.453 0 008.474 7.54 64.224 64.224 0 01-16.553-8.676l-46.194-33.557a85.165 85.165 0 01-34.705-77.095l8.001-82.913c5.469-56.547 52.575-99.826 109.212-100.648-34.885.844-74.386 33.726-76.446 68.745l-12.03 131.155z"/>
  <g fill="#c0e7f9">
    <circle cx="229.687" cy="225.625" r="32.127"/>
    <circle cx="330.223" cy="225.625" r="32.127"/>
  </g>
  <path fill="#f9c573" d="M452.584 260.955c-3.646 21.966-22.079 38.913-44.27 40.793-7.348.619-14.404-.383-20.83-2.701a84.997 84.997 0 0012.311-52.923l-8.012-82.902c-1.339-13.841-5.165-26.884-11.028-38.711-7.675 20.672-27.581 35.402-50.92 35.402h-97.857c-23.339 0-43.246-14.73-50.92-35.402-5.863 11.827-9.689 24.869-11.028 38.711l-8.012 82.902a85.14 85.14 0 0012.277 52.867c-6.268 2.296-13.132 3.32-20.312 2.813-26.49-1.902-46.284-24.172-45.406-50.707.405-12.255 5.098-23.361 12.885-31.734 13.346-14.359 21.246-32.915 21.246-52.507v-1.227c0-7.686.641-15.225 1.846-22.574 6.268-62.556 54.6-112.7 116.29-121.747a137.123 137.123 0 0120.064-1.463c69.713 0 127.262 52.046 135.915 119.407a138.58 138.58 0 012.532 26.377v1.947c0 19.367 7.663 37.788 20.796 52.034 9.721 10.557 15.088 25.377 12.433 41.345z"/>
  <path fill="#f95428" d="M358.963 462.244h144.04v35.477h-144.04z"/>
  <path fill="#e6e6e6" d="M376.968 431.906h108.03v30.34h-108.03z"/>
  <path fill="#fcea81" d="M366.458 405.9h129.04v25.995h-129.04z"/>
  <path fill="#e2af66" d="M231.977 159.914c-23.339 0-43.246-14.73-50.92-35.402-5.863 11.827-9.689 24.869-11.028 38.711l-8.012 82.902a85.14 85.14 0 0012.277 52.867c-6.268 2.296-13.132 3.32-20.312 2.813-26.49-1.902-46.284-24.172-45.406-50.707.405-12.255 5.098-23.361 12.885-31.734 13.346-14.359 21.246-32.915 21.246-52.507v-1.227c0-7.686.641-15.225 1.846-22.574 6.268-62.556 54.6-112.7 116.29-121.747-1.408 1.103-63.176 49.727-28.866 138.605z"/>
  <path d="M184.477 343.964c-21.356 12.965-34.106 35.603-34.106 60.554v5.957a8.44 8.44 0 0016.88 0v-5.957c0-19.004 9.715-36.246 25.986-46.125a8.44 8.44 0 002.835-11.594 8.44 8.44 0 00-11.595-2.835zM378.451 343.964a8.44 8.44 0 00-8.76 14.429c10.522 6.387 18.615 16.247 22.79 27.761a8.443 8.443 0 007.936 5.566 8.41 8.41 0 002.876-.508 8.44 8.44 0 005.057-10.811c-5.483-15.12-16.1-28.06-29.899-36.437zM303.064 292.417c-5.768 5.769-13.438 8.946-21.598 8.946-8.159 0-15.829-3.177-21.598-8.946-3.297-3.296-8.639-3.296-11.935 0s-3.296 8.639 0 11.935c8.957 8.957 20.867 13.891 33.534 13.891 12.668 0 24.578-4.933 33.535-13.891a8.439 8.439 0 000-11.935 8.444 8.444 0 00-11.938 0zM343.07 364.957c-4.582-.827-8.978 2.218-9.806 6.805l-7.657 42.391-39.251-27.885a8.44 8.44 0 00-9.777 0l-39.25 27.885-7.657-42.39a8.438 8.438 0 00-9.805-6.805 8.438 8.438 0 00-6.805 9.805l10.018 55.467a8.437 8.437 0 0013.193 5.38l36.754-26.112v80.343H167.249V438.61a8.44 8.44 0 00-16.88 0v59.671a8.44 8.44 0 008.44 8.44H330.26c4.662 0 8.44-3.779 8.44-8.44s-3.778-8.44-8.44-8.44h-40.353v-80.343l36.754 26.112a8.44 8.44 0 0013.194-5.38l10.019-55.467a8.437 8.437 0 00-6.804-9.806z"/>
  <path d="M134.559 464.783a8.44 8.44 0 000-16.88 34.77 34.77 0 00-18.095 5.054v-93.295c0-9.977 8.117-18.095 18.095-18.095h35.909a8.44 8.44 0 000-16.88h-35.909c-10.605 0-20.115 4.751-26.535 12.229-6.419-7.478-15.93-12.229-26.535-12.229H8.44a8.44 8.44 0 00-8.44 8.44v149.751a8.44 8.44 0 008.44 8.44h126.119a8.44 8.44 0 000-16.88h-15.993c3.039-5.734 9.063-9.655 15.993-9.655zM16.88 341.568h64.611c9.977 0 18.095 8.117 18.095 18.095v93.295a34.768 34.768 0 00-18.095-5.054H16.88V341.568zm0 123.215h64.611c6.93 0 12.955 3.919 15.993 9.655H16.88v-9.655z"/>
  <path d="M69.939 355.148H36.93a8.44 8.44 0 000 16.88h33.009a8.44 8.44 0 000-16.88zM69.939 416.436H36.93a8.44 8.44 0 000 16.88h33.009a8.44 8.44 0 000-16.88zM69.939 385.792H36.93a8.44 8.44 0 000 16.88h33.009a8.44 8.44 0 000-16.88zM503.56 454.363h-9.565v-13.46h2.063a8.44 8.44 0 008.44-8.44v-25.997a8.44 8.44 0 00-8.44-8.44H367.023a8.44 8.44 0 00-8.44 8.44v25.997a8.44 8.44 0 008.44 8.44h2.063v13.46h-9.565a8.44 8.44 0 00-8.44 8.44v35.477a8.44 8.44 0 008.44 8.44h96.402c4.662 0 8.44-3.779 8.44-8.44s-3.778-8.44-8.44-8.44H367.96v-18.597h127.16v18.597h-11.065c-4.662 0-8.44 3.779-8.44 8.44s3.778 8.44 8.44 8.44h19.505a8.44 8.44 0 008.44-8.44v-35.477a8.44 8.44 0 00-8.44-8.44zm-128.097-39.456h112.155v9.117H375.462l.001-9.117zm10.502 39.456v-13.46h91.15v13.46h-91.15zM85.08 125.997c33.281 0 60.358-27.077 60.358-60.358S118.361 5.281 85.08 5.281 24.722 32.357 24.722 65.639s27.077 60.358 60.358 60.358zm0-103.836c23.974 0 43.479 19.505 43.479 43.479s-19.505 43.478-43.479 43.478-43.478-19.505-43.478-43.479S61.107 22.161 85.08 22.161z"/>
  <path d="M85.08 74.079h13.332a8.44 8.44 0 000-16.88H93.52V43.094a8.44 8.44 0 00-16.88 0V65.64a8.44 8.44 0 008.44 8.439zM134.827 166.193v1.227c0 16.98-6.744 33.587-18.986 46.759-9.301 10-14.677 23.212-15.141 37.203-1.029 31.093 22.357 57.187 53.248 59.405 1.411.099 2.816.15 4.214.15 4.474 0 8.871-.521 13.158-1.535a93.08 93.08 0 0021.012 21.205l46.194 33.568c12.842 9.331 27.892 13.997 42.941 13.997 15.049 0 30.099-4.666 42.941-13.997l46.193-33.568a93.08 93.08 0 0020.987-21.17c5.839 1.363 11.865 1.803 17.999 1.286 26.245-2.224 47.579-21.887 51.883-47.818 2.924-17.574-2.381-35.232-14.555-48.449-11.97-12.985-18.561-29.433-18.561-46.314v-1.947c0-9.282-.886-18.608-2.632-27.722C416.316 66.335 354.346 11.97 281.465 11.97c-36.298 0-71.062 13.444-97.889 37.857-26.578 24.185-43.204 57.093-46.839 92.689a148.403 148.403 0 00-1.91 23.677zm234.679 47.872c-5.165-16.468-20.567-28.449-38.716-28.449-19.474 0-35.782 13.796-39.677 32.127h-21.187c-3.895-18.33-20.203-32.127-39.676-32.127-17.831 0-32.999 11.568-38.425 27.589l-16.666-8.974 3.831-39.638a103.3 103.3 0 013.949-20.027c11.701 15.035 29.952 24.345 49.599 24.345h97.856c19.647 0 37.899-9.31 49.599-24.345a103.366 103.366 0 013.95 20.026l3.831 39.637-18.268 9.836zm-15.029 12.118c0 13.06-10.625 23.687-23.687 23.687s-23.687-10.625-23.687-23.687c0-13.061 10.625-23.687 23.687-23.687s23.687 10.626 23.687 23.687zm-147.913-.028c.015-13.048 10.633-23.659 23.686-23.659 13.06 0 23.686 10.625 23.686 23.687 0 13.061-10.625 23.687-23.686 23.687-13.059 0-23.683-10.623-23.687-23.681l.001-.034zm154.113 90.794l-46.194 33.568c-19.748 14.35-46.287 14.35-66.036 0l-46.194-33.568c-21.895-15.909-33.88-42.522-31.276-69.455l2.419-25.039 16.634 8.957c2.575 19.906 19.622 35.338 40.218 35.338 19.474 0 35.782-13.796 39.676-32.127h3.111c-.002.083-.012.164-.012.248v17.442h-.385c-4.662 0-8.44 3.779-8.44 8.44s3.778 8.44 8.44 8.44h17.648c4.662 0 8.44-3.779 8.44-8.44s-3.778-8.44-8.44-8.44h-.384v-17.442c0-.083-.01-.164-.012-.248h1.221c3.895 18.33 20.203 32.127 39.677 32.127 20.216 0 37.024-14.867 40.07-34.241l18.675-10.056 2.421 25.042c2.604 26.931-9.382 53.546-31.277 69.454zm-208.97-150.756c0-7.071.583-14.206 1.731-21.207.028-.174.052-.349.07-.524 3.163-31.541 17.877-60.717 41.431-82.151 23.711-21.578 54.44-33.461 86.529-33.461 64.505 0 119.339 48.167 127.55 112.039.022.177.051.352.084.528a130.801 130.801 0 012.374 24.777v1.947c0 21.132 8.179 41.643 23.027 57.752 8.62 9.358 12.38 21.839 10.317 34.244-2.99 18.018-18.406 32.219-36.651 33.764a41.643 41.643 0 01-7.544-.056c6.78-14.794 9.743-31.333 8.135-47.974l-8.012-82.903c-1.412-14.599-5.406-28.61-11.868-41.646a8.448 8.448 0 00-8.003-4.68 8.443 8.443 0 00-7.471 5.492c-6.638 17.883-23.923 29.9-43.008 29.9H232.54c-19.085 0-36.369-12.016-43.008-29.9a8.438 8.438 0 00-7.471-5.49 8.428 8.428 0 00-8.003 4.68c-6.462 13.034-10.454 27.047-11.868 41.647l-8.012 82.902c-1.608 16.638 1.354 33.172 8.129 47.964-2.351.24-4.74.287-7.159.114-21.798-1.565-38.303-20.017-37.575-42.01.327-9.92 4.103-19.247 10.632-26.266 15.157-16.307 23.503-36.995 23.503-58.253v-1.228h-.001z"/>
  <circle cx="306.737" cy="446.771" r="8.44"/>
  <circle cx="330.797" cy="226.176" r="8.44"/>
  <circle cx="230.239" cy="226.188" r="8.44"/>
</svg>
