<svg width="36" height="36" viewBox="0 0 36 36" fill="none" xmlns="http://www.w3.org/2000/svg">
<path d="M31.2188 27.8438H7.03125V5.90625C7.03125 5.75156 6.90469 5.625 6.75 5.625H4.78125C4.62656 5.625 4.5 5.75156 4.5 5.90625V30.0938C4.5 30.2484 4.62656 30.375 4.78125 30.375H31.2188C31.3734 30.375 31.5 30.2484 31.5 30.0938V28.125C31.5 27.9703 31.3734 27.8438 31.2188 27.8438ZM10.125 21.2344C10.125 21.8311 10.3621 22.4034 10.784 22.8254C11.206 23.2473 11.7783 23.4844 12.375 23.4844C12.9717 23.4844 13.544 23.2473 13.966 22.8254C14.3879 22.4034 14.625 21.8311 14.625 21.2344C14.625 20.6376 14.3879 20.0653 13.966 19.6434C13.544 19.2214 12.9717 18.9844 12.375 18.9844C11.7783 18.9844 11.206 19.2214 10.784 19.6434C10.3621 20.0653 10.125 20.6376 10.125 21.2344ZM14.2734 13.3594C14.2734 13.8069 14.4512 14.2362 14.7677 14.5526C15.0842 14.8691 15.5134 15.0469 15.9609 15.0469C16.4085 15.0469 16.8377 14.8691 17.1542 14.5526C17.4706 14.2362 17.6484 13.8069 17.6484 13.3594C17.6484 12.9118 17.4706 12.4826 17.1542 12.1661C16.8377 11.8497 16.4085 11.6719 15.9609 11.6719C15.5134 11.6719 15.0842 11.8497 14.7677 12.1661C14.4512 12.4826 14.2734 12.9118 14.2734 13.3594ZM19.8281 21.375C19.8281 22.2701 20.1837 23.1286 20.8166 23.7615C21.4496 24.3944 22.308 24.75 23.2031 24.75C24.0982 24.75 24.9567 24.3944 25.5896 23.7615C26.2225 23.1286 26.5781 22.2701 26.5781 21.375C26.5781 20.4799 26.2225 19.6214 25.5896 18.9885C24.9567 18.3556 24.0982 18 23.2031 18C22.308 18 21.4496 18.3556 20.8166 18.9885C20.1837 19.6214 19.8281 20.4799 19.8281 21.375ZM25.0312 10.3359C25.0312 10.8581 25.2387 11.3588 25.6079 11.7281C25.9771 12.0973 26.4779 12.3047 27 12.3047C27.5221 12.3047 28.0229 12.0973 28.3921 11.7281C28.7613 11.3588 28.9688 10.8581 28.9688 10.3359C28.9688 9.81379 28.7613 9.31303 28.3921 8.94382C28.0229 8.57461 27.5221 8.36719 27 8.36719C26.4779 8.36719 25.9771 8.57461 25.6079 8.94382C25.2387 9.31303 25.0312 9.81379 25.0312 10.3359Z" fill="#FFFFFF"/>
</svg>
